/* XPM */
static char *xvile_mini[] = {
/* width height num_colors chars_per_pixel */
"    16    16        2            1",
/* colors */
". c #00007f",
"# c #cccccc",
/* pixels */
"................",
"................",
"................",
".....###....#...",
"....#####..##...",
"...##..#####....",
"...#....###.....",
"................",
"................",
".....###....#...",
"....#####..##...",
"...##..#####....",
"...#....###.....",
"................",
"................",
"................"
};
