/* XPM */
static char *vile[] = {
/* width height ncolors chars_per_pixel */
"32 32 5 1",
/* colors */
"  c #000000",
". c #800000",
"X c #FF0000",
"o c #FFFFFF",
"O c #808000",
/* pixels */
"oooooooooooooo....Oooooooooooooo",
"ooooooooooooo......ooooooooooooo",
"ooooooooooooo.....oooooooooooooo",
"oooooooooooo.....ooooooooooooooo",
"ooooooooooXX.....XXXoooooooooooo",
"oooooooXXXXXXXX.XXXXXXXooooooooo",
"ooooooXXXXXXXXXXXXXXXXXXXooooooo",
"oooooXXXXXXXXXXXXXXXXXXXXXoooooo",
"ooooXXXXXXXXXXXXXXXXXXXXXXXooooo",
"oooXXXXXXXXXXXXXXXXXXXXXXXXXoooo",
"oooXXXXXXXXXXXXXXXXXXXXXXXXXXooo",
"ooXXXXXXXXXXXXXXXXXXXXXXXXXXXooo",
"ooXXXXXXXXXXXXXXXXXXXXXXXXXXXXoo",
"ooXXXXXXX XX XXXX XX XXXXXXXXXoo",
"oXXXXXXXX XX XXXX XX XXXXXXXXXoo",
"oXXXXXXXX XX XXXXX   XXXXXXXXXXo",
"oXXXXXXXXX  XXXXXX  XXXXXXXXXXXo",
"oXXXXXXXXX  XXX XXX XXXXXXXXXXXo",
"oXXXXXXXXXXXXXX XXXXXXXXXXXXXXXo",
"oXXXXXXXXXXXXX   XXXXXXXXXXXXXoo",
"ooXXXXXXXXXXXX X XXXXXXXXXXXXXoo",
"ooXXXXX XXXXXXXXXXXXXXX XXXXXXoo",
"ooXXXXXX  XXXXXXXXX X  XXXXXXooo",
"oooXXXXXX   X XX X    XXXXXXXooo",
"oooXXXXXXX           XXXXXXXoooo",
"ooooXXXXXXX        XXXXXXXXooooo",
"oooooXXXXXXXXX  XXXXXXXXXXoooooo",
"ooooooXXXXXXXXXXXXXXXXXXXooooooo",
"oooooooXXXXXXXXXXXXXXXXooooooooo",
"ooooooooooXXXXXXXXXXoooooooooooo",
"oooooooooooooooooooooooooooooooo",
"oooooooooooooooooooooooooooooooo"
};
