/* XPM */
static char *vile[] = {
/* width height num_colors chars_per_pixel */
"    32    32       10            1",
/* colors */
". c #000000",
"# c #800000",
"a c #000080",
"b c #008080",
"c c #c0c0c0",
"d c #808080",
"e c #ff0000",
"f c #0000ff",
"g c #00ffff",
"h c #ffffff",
/* pixels */
"hhhhhhhhhhhhhhhhhh...hhhhhhhhhhh",
"hhhhhhhhhh......h.dcc.hh.......h",
"hhhhhhhhh.######.dccc.h.aaaaaaa.",
"hhhhhhhhh.eeeee.dcc.c.h.fffffff.",
"hhhhhhhhhh.....dcc.dc.h........h",
"hhhhhhhhhhhhh.dcc..dc.h.dc.hhhhh",
"hhhhhhhhhh....dc...dc...dc.....h",
"hhhhhhhhh.ccc.dc.c.dc.c.dc.cccc.",
"hhhhhhhh.chhh.dc.hh..hhh..hhhcc.",
"hhhhhhh.chchc.dc.chchchchchhchc.",
"hhhhhh.cdcdcd.dc.dcdcdcdcdcchhc.",
"hhhhh.chhchchb..bhchchchchchhhc.",
"hhhh.chhhhhhhbggbhhhhhhhhchhhhc.",
"hhh.chhhbbbbbbggbbbbbbbbchhhhhc.",
"hh.chhhbbbbbbbggbbbbbbbchhhhhhc.",
"h.chhhbbbbbbbbggbbbbbbchhhhhhc.h",
".ccccccccccccccccccccdchhhhhc.hh",
".cchchchchchchchchchcchhhhhc.hhh",
".chhhhhhhhhhhhhhhhhhhdchhhc.hhhh",
".cchhhhhhhhhhhhhhhhhcchhhc.hhhhh",
".chhhhhhhhhhhhhhhhhhhdchc..hhhhh",
".cchhhhhhhhhhhhhhhhhcchc.c.hhhhh",
".chhhhhhhhhhhhhhhhhhhdc.dc.hhhhh",
".cchhhhhhhhhhhhhhhhhcc..dc.hhhhh",
".cccccccccccccccccccc.h.dc.hhhhh",
"h....................hh.dc.hhhhh",
"hhhhhhhhhhhhh.dc.hhhhhh.dc.hhhhh",
"hhhhhhhhhhhhh.dc.hhhhhh.dc.hhhhh",
"hhhhhhhhhhhhh.ddc..hhhh.ddc..hhh",
"hhhhhhhhhhhhhh.ddcc.hhhh.ddcc.hh",
"hhhhhhhhhhhhhhh.ddd.hhhhh.ddd.hh",
"hhhhhhhhhhhhhhhh...hhhhhhh...hhh"
};