/* XPM */
static char * vile_mini_32x32_xpm[] = {
"32 32 54 1",
" 	c None",
".	c #000080",
"+	c #020281",
"@	c #5959A9",
"#	c #B4B4D2",
"$	c #E2E2E8",
"%	c #E4E4E9",
"&	c #C0C0D8",
"*	c #7272B4",
"=	c #0E0E86",
"-	c #5B5BAA",
";	c #141489",
">	c #ECECEC",
",	c #D8D8E3",
"'	c #5151A5",
")	c #3A3A9A",
"!	c #E6E6EA",
"~	c #151589",
"{	c #C9C9DC",
"]	c #9292C3",
"^	c #0C0C85",
"/	c #40409D",
"(	c #E1E1E7",
"_	c #BBBBD6",
":	c #D5D5E2",
"<	c #6A6AB1",
"[	c #1E1E8E",
"}	c #060683",
"|	c #272792",
"1	c #8989BF",
"2	c #E9E9EB",
"3	c #8E8EC1",
"4	c #2F2F95",
"5	c #060682",
"6	c #101087",
"7	c #45459F",
"8	c #A5A5CC",
"9	c #B8B8D4",
"0	c #DFDFE6",
"a	c #3C3C9B",
"b	c #41419E",
"c	c #D0D0DF",
"d	c #CBCBDD",
"e	c #E5E5E9",
"f	c #353598",
"g	c #0D0D86",
"h	c #9393C3",
"i	c #17178A",
"j	c #373799",
"k	c #A0A0C9",
"l	c #DCDCE5",
"m	c #BCBCD6",
"n	c #6363AD",
"o	c #050582",
"................................",
"................................",
"................................",
"................................",
"................................",
"........+@#$%&*=..........-.....",
".......;#>>>>>>,'........)!.....",
"......~{>>>>>>>>>]^...../(>.....",
"......_>>>>>>>>>>>:<[}|12>>.....",
"......>>>>>>>>>>>>>>>>>>>>>.....",
"......>>2345678>>>>>>>>>>>9.....",
"......>0a......bc>>>>>>>>d~.....",
"......ef........gh>>>>>>_i......",
"......@...........jkl!mno.......",
"................................",
"................................",
"................................",
"................................",
"................................",
"........+@#$%&*=..........-.....",
".......;#>>>>>>,'........)!.....",
"......~{>>>>>>>>>]^...../(>.....",
"......_>>>>>>>>>>>:<[}|12>>.....",
"......>>>>>>>>>>>>>>>>>>>>>.....",
"......>>2345678>>>>>>>>>>>9.....",
"......>0a......bc>>>>>>>>d~.....",
"......ef........gh>>>>>>_i......",
"......@...........jkl!mno.......",
"................................",
"................................",
"................................",
"................................"};
