/* XPM */
static char * vile_mini_48x48_xpm[] = {
"48 48 68 1",
" 	c None",
".	c #000080",
"+	c #353598",
"@	c #8F8FC1",
"#	c #C8C8DC",
"$	c #E4E4E9",
"%	c #E2E2E8",
"&	c #8D8DC1",
"*	c #5A5AA9",
"=	c #17178A",
"-	c #A5A5CC",
";	c #ECECEC",
">	c #B0B0D1",
",	c #282892",
"'	c #2D2D94",
")	c #333397",
"!	c #D9D9E4",
"~	c #E7E7EA",
"{	c #7979B7",
"]	c #040482",
"^	c #1D1D8D",
"/	c #D4D4E1",
"(	c #38389A",
"_	c #B5B5D3",
":	c #1F1F8E",
"<	c #CDCDDE",
"[	c #DFDFE6",
"}	c #DEDEE6",
"|	c #5F5FAB",
"1	c #44449F",
"2	c #D9D9E3",
"3	c #C9C9DC",
"4	c #6B6BB1",
"5	c #262691",
"6	c #080883",
"7	c #101087",
"8	c #A4A4CB",
"9	c #ABABCE",
"0	c #4F4FA4",
"a	c #19198B",
"b	c #060683",
"c	c #151589",
"d	c #40409D",
"e	c #8989BF",
"f	c #E0E0E7",
"g	c #D7D7E3",
"h	c #42429E",
"i	c #121288",
"j	c #8787BE",
"k	c #EAEAEB",
"l	c #1A1A8C",
"m	c #383899",
"n	c #CECEDE",
"o	c #16168A",
"p	c #090984",
"q	c #8E8EC1",
"r	c #DDDDE5",
"s	c #E1E1E7",
"t	c #43439F",
"u	c #CACADD",
"v	c #B4B4D3",
"w	c #5757A8",
"x	c #030381",
"y	c #5454A6",
"z	c #A7A7CD",
"A	c #D8D8E3",
"B	c #D2D2E0",
"C	c #9C9CC7",
"................................................",
"................................................",
"................................................",
"................................................",
"................................................",
"................................................",
"................................................",
"..............+@#$%#&+.................*........",
"............=-;;;;;;;;>,..............'$........",
"...........)!;;;;;;;;;;~{]...........^/;........",
"..........(%;;;;;;;;;;;;;_^.........:<;;........",
".........,[;;;;;;;;;;;;;;;}|]......12;;;........",
".........<;;;;;;;;;;;;;;;;;;3456718;;;;;........",
".........;;;;;;;;;;;;;;;;;;;;;;;;;;;;;;;........",
".........;;;;;90abcdef;;;;;;;;;;;;;;;;;3........",
".........;;;gh.......ijk;;;;;;;;;;;;;;}5........",
".........;;#l..........)#;;;;;;;;;;;;$m.........",
".........;no............pq;;;;;;;;;;rm..........",
".........s,...............tu;;;;;;;v:...........",
".........w.................xyzA~BC1.............",
"................................................",
"................................................",
"................................................",
"................................................",
"................................................",
"................................................",
"................................................",
"................................................",
"..............+@#$%#&+.................*........",
"............=-;;;;;;;;>,..............'$........",
"...........)!;;;;;;;;;;~{]...........^/;........",
"..........(%;;;;;;;;;;;;;_^.........:<;;........",
".........,[;;;;;;;;;;;;;;;}|]......12;;;........",
".........<;;;;;;;;;;;;;;;;;;3456718;;;;;........",
".........;;;;;;;;;;;;;;;;;;;;;;;;;;;;;;;........",
".........;;;;;90abcdef;;;;;;;;;;;;;;;;;3........",
".........;;;gh.......ijk;;;;;;;;;;;;;;}5........",
".........;;#l..........)#;;;;;;;;;;;;$m.........",
".........;no............pq;;;;;;;;;;rm..........",
".........s,...............tu;;;;;;;v:...........",
".........w.................xyzA~BC1.............",
"................................................",
"................................................",
"................................................",
"................................................",
"................................................",
"................................................",
"................................................"};
